<svg xmlns="http://www.w3.org/2000/svg" width="108" height="76" viewBox="0 0 108 76">
  <g fill="none" fill-rule="evenodd">
    <path fill="#FFF" d="M11.4217364,73.1852182 C11.2548273,72.7716273 11.0891455,72.3592636 10.9222364,71.9456727 C10.3368273,71.8818545 9.65569091,71.5885364 9.18319091,71.7885818 C6.55437273,72.9054 5.69773636,71.7775364 4.93805455,69.2861727 C1.77169091,58.9022182 1.69928182,48.5943545 4.99205455,38.2533545 C13.3718727,11.9443091 40.8591,-3.36223636 68.2051909,4.7169 C96.1293273,12.9666273 110.9376,41.8136727 102.345464,69.6384 C101.563691,72.1702636 100.520509,72.6844909 98.1702818,71.7100364 C95.0665091,70.4238545 91.8915545,69.2935364 88.6896,68.2810364 C88.0366909,68.0748545 87.1248273,68.6848091 86.3332364,68.9179909 C86.8953273,69.5058545 87.3494182,70.3526727 88.0366909,70.6349455 C91.9001455,72.2205818 95.8274182,73.6503545 99.7178727,75.1734 C101.682736,75.9441273 102.841282,75.6139909 103.686873,73.4024455 C108.559145,60.6449455 108.748145,47.8224 104.0256,35.0796273 C93.4600091,6.56762727 61.3349182,-7.86019091 32.6106,4.3794 C5.42650909,15.9636273 -6.27430909,45.9189 3.3021,72.3899455 C3.74637273,73.6184455 5.18964545,75.4679455 5.99350909,75.3832636 C7.85896364,75.1869 9.61887273,73.9804909 11.4217364,73.1852182"/>
    <path fill="#FFF" d="M83.6431773 53.9539773C85.1981318 54.4669773 85.8314045 54.8498864 86.4683591 54.8584773 90.5576318 54.9149318 94.6493591 54.9468409 98.7361773 54.8339318 99.4344955 54.8142955 100.11195 54.0681136 100.799223 53.6569773 100.091086 53.2347955 99.3939955 52.4689773 98.6760409 52.4481136 94.6910864 52.3315227 90.6999955 52.3339773 86.7162682 52.4505682 85.9357227 52.4738864 85.1748136 53.1783409 83.6431773 53.9539773M94.9367864 30.0340636C94.0641955 29.9002909 93.4701955 29.6057455 93.13515 29.7886091 89.4692864 31.7817 85.8291955 33.8214273 82.2332864 35.9372455 81.8663318 36.1532455 81.8393318 36.9497455 81.6540136 37.4750182 82.2836045 37.6051091 83.0899227 38.0506091 83.5170136 37.8149727 87.1644682 35.7899727 90.7505591 33.6557455 94.3268318 31.5055636 94.5882409 31.3484727 94.6262864 30.8170636 94.9367864 30.0340636M84.7422 45.5583273C87.4802455 46.5659182 97.8556091 43.7542364 99.3811091 41.5917818 96.6320182 40.2761455 85.9056545 43.1823273 84.7422 45.5583273M77.4290045 30.8310545C78.1665955 30.5794636 78.4108227 30.5696455 78.5409136 30.4420091 81.4323682 27.6045545 84.3287318 24.7720091 87.1588227 21.8756455 87.3785045 21.6510545 87.2790955 20.6643273 87.0630955 20.5538727 86.6016409 20.3206909 85.7192318 20.1697364 85.4394136 20.4372818 82.5798682 23.1704182 79.7718682 25.9612364 77.06205 28.8416455 76.7969591 29.1226909 77.2805045 30.1081909 77.4290045 30.8310545M77.69925 13.0800273C77.4599318 12.9278455 77.2206136 12.7768909 76.9812955 12.6259364 76.3553864 13.1254364 75.5380227 13.5046636 75.1354773 14.1453 73.5645682 16.6428 72.0488864 19.1832545 70.6939773 21.8010273 70.3748864 22.4195727 70.7688409 23.4063 70.8338864 24.2236636 71.5371136 23.7867545 72.4931591 23.5118455 72.9018409 22.8810273 74.4494318 20.4927545 75.8718409 18.0161182 77.2206136 15.5088 77.5937045 14.8129364 77.55075 13.8949364 77.69925 13.0800273M67.2080318 8.04023182C65.8113955 8.21818636 65.13885 8.17400455 65.0909864 8.32741364 63.9962591 11.8484591 62.9530773 15.3854591 61.9688045 18.9396409 61.9098955 19.1531864 62.4106227 19.7508682 62.68185 19.7729591 63.1028045 19.8060955 63.8575773 19.5900955 63.9410318 19.3164136 65.0382136 15.7340045 66.0445773 12.1209136 67.2080318 8.04023182M71.4267818 64.3066364C70.8376909 64.5385909 70.0534636 64.8490909 69.2704636 65.1583636 69.4741909 65.6664545 69.6018273 66.5635909 69.8939182 66.6212727 72.7632818 67.1895 75.6547364 67.6583182 78.5572364 68.0277273 78.8984182 68.0719091 79.6887818 67.2999545 79.6482818 66.9894545 79.5881455 66.5353636 79.0248273 65.9008636 78.5670545 65.7891818 76.3101 65.2356818 74.0187818 64.8282273 71.4267818 64.3066364M18.8560636 70.7905636C21.5769273 70.0848818 23.9541545 69.5399727 26.2724727 68.8072909 26.7916091 68.6440636 27.1021091 67.8193364 27.5083364 67.2989727 26.8370182 67.0302 26.1018818 66.4337455 25.5042 66.5478818 23.2128818 66.9860182 20.9448818 67.5849273 18.7198364 68.2881545 18.2080636 68.4501545 17.9049273 69.2675182 17.5048364 69.7829727 18.0080182 70.1572909 18.5099727 70.5328364 18.8560636 70.7905636M53.6936727 17.5875545C54.7859455 15.9098727 55.4449909 9.12428182 54.7049455 7.68714545 54.5085818 7.30669091 54.0311727 6.95078182 53.6175818 6.84769091 53.3623091 6.78387273 52.8849 7.15082727 52.6774909 7.44537273 51.8294455 8.6481 52.4909455 15.9061909 53.6936727 17.5875545M44.8493318 65.8635545C44.8100591 65.4794182 44.7707864 65.0940545 44.7315136 64.7099182 43.4367409 63.7833273 35.9921045 63.8520545 34.9599682 64.8486 34.7010136 65.0989636 34.4297864 65.6316 34.53165 65.8905545 34.6850591 66.2869636 35.1845591 66.8601 35.4938318 66.8343273 38.6172409 66.5716909 41.7320591 66.2022818 44.8493318 65.8635545M62.9503773 65.5771091C61.0407409 63.3569727 53.1825136 62.4340636 52.2387409 63.7104273 52.00065 64.0332 52.5296045 65.4875182 52.7406955 65.4961091 55.8861955 65.6139273 59.0366045 65.5771091 62.9503773 65.5771091M41.2502318 8.262C40.3236409 11.3166818 41.78655 16.1644091 43.9858227 17.3290909 45.1873227 14.2854545 43.6213227 9.09409091 41.2502318 8.262M32.7670773 20.4688227C33.2358955 20.5792773 33.7059409 20.6897318 34.1747591 20.7989591 34.3330773 20.3276864 34.76385 19.7201864 34.6067591 19.4084591 33.5108045 17.2288227 32.3093045 15.1019591 31.0673045 13.0033227 31.0096227 12.9075955 30.2327591 13.2389591 29.7909409 13.3715045 30.7838045 15.7376864 31.7754409 18.1026409 32.7670773 20.4688227M26.4006 24.7270909C24.5437364 22.9831364 23.1348273 21.5815909 21.6130091 20.3162727 21.3908727 20.1334091 20.6238273 20.6071364 20.1096 20.7765 20.9036455 21.9804545 21.6375545 23.2273636 22.5150545 24.3662727 22.9286455 24.9013636 23.5705091 25.4290909 24.1964182 25.5714545 24.6762818 25.6806818 25.2960545 25.1811818 26.4006 24.7270909M19.1778545 32.2836545C17.0301273 31.2625636 15.4027636 30.4464273 13.7214 29.7640636 13.5704455 29.7027 13.0684909 30.5090182 12.7309909 30.9115636 14.2822636 31.8627 15.8139 32.8555636 17.4167182 33.7097455 17.5909909 33.8017909 18.1874455 33.1047 19.1778545 32.2836545M13.3260955 43.9655727C12.3246409 40.6924364 10.0676864 40.2113455 7.17500455 42.4523455 9.64059545 43.0586182 11.4827318 43.5114818 13.3260955 43.9655727M11.8250182 54.5795182C11.9072455 54.0947455 11.9894727 53.6099727 12.0704727 53.1252 10.6456091 52.9067455 9.2232 52.5925636 7.79097273 52.5287455 7.41051818 52.5115636 6.99692727 53.2651091 6.59806364 53.6639727 7.08038182 54.0591545 7.54060909 54.7550182 8.0487 54.7918364 9.29560909 54.8826545 10.5658364 54.6691091 11.8250182 54.5795182"/>
    <path fill="#000" d="M11.4217364,73.1852182 C9.61887273,73.9804909 7.85896364,75.1869 5.99350909,75.3832636 C5.18964545,75.4679455 3.74637273,73.6184455 3.3021,72.3899455 C-6.27430909,45.9189 5.42650909,15.9636273 32.6106,4.3794 C61.3349182,-7.86019091 93.4600091,6.56762727 104.0256,35.0796273 C108.748145,47.8224 108.559145,60.6449455 103.686873,73.4024455 C102.841282,75.6139909 101.682736,75.9441273 99.7178727,75.1734 C95.8274182,73.6503545 91.9001455,72.2205818 88.0366909,70.6349455 C87.3494182,70.3526727 86.8953273,69.5058545 86.3332364,68.9179909 C87.1248273,68.6848091 88.0366909,68.0748545 88.6896,68.2810364 C91.8915545,69.2935364 95.0665091,70.4238545 98.1702818,71.7100364 C100.520509,72.6844909 101.563691,72.1702636 102.345464,69.6384 C110.9376,41.8136727 96.1293273,12.9666273 68.2051909,4.7169 C40.8591,-3.36223636 13.3718727,11.9443091 4.99205455,38.2533545 C1.69928182,48.5943545 1.77169091,58.9022182 4.93805455,69.2861727 C5.69773636,71.7775364 6.55437273,72.9054 9.18319091,71.7885818 C9.65569091,71.5885364 10.3368273,71.8818545 10.9222364,71.9456727 C11.0891455,72.3592636 11.2548273,72.7716273 11.4217364,73.1852182"/>
    <path fill="#000" d="M42.9685317,52.3278317 C42.6359408,52.3315135 42.3045772,52.3364226 41.9719863,52.3401044 C41.3792136,56.3557408 40.7140317,60.3652408 40.2268045,64.3943771 C40.040259,65.9309226 40.620759,67.5509226 42.4948045,67.1692408 C43.3673954,66.990059 44.643759,65.4351044 44.5774863,64.5944226 C44.2559408,60.4879681 43.5428954,56.4134226 42.9685317,52.3278317 M42.9685317,39.1444681 C43.347759,40.1311953 43.9184408,41.0860135 44.0743045,42.1058771 C45.1678045,49.2756044 46.1680317,56.4588317 47.2124408,63.6371499 C47.5438045,65.9223317 47.2922136,68.3081499 45.0561227,69.1844226 C43.4668045,69.8078771 40.7471681,69.9085135 39.7015317,68.9586044 C38.4079863,67.7816499 37.6495317,65.2056044 37.8385317,63.3548771 C38.555259,56.3496044 39.7211681,49.3872862 40.7925772,42.4225135 C40.9656227,41.2983317 41.511759,40.2318317 41.8836227,39.1371044 C42.2456681,39.139559 42.6077136,39.1420135 42.9685317,39.1444681" transform="rotate(-94 42.57 54.4)"/>
    <path fill="#000" d="M83.6431773 53.9539773C85.1748136 53.1783409 85.9357227 52.4738864 86.7162682 52.4505682 90.6999955 52.3339773 94.6910864 52.3315227 98.6760409 52.4481136 99.3939955 52.4689773 100.091086 53.2347955 100.799223 53.6569773 100.11195 54.0681136 99.4344955 54.8142955 98.7361773 54.8339318 94.6493591 54.9468409 90.5576318 54.9149318 86.4683591 54.8584773 85.8314045 54.8498864 85.1981318 54.4669773 83.6431773 53.9539773M94.9367864 30.0340636C94.6262864 30.8170636 94.5882409 31.3484727 94.3268318 31.5055636 90.7505591 33.6557455 87.1644682 35.7899727 83.5170136 37.8149727 83.0899227 38.0506091 82.2836045 37.6051091 81.6540136 37.4750182 81.8393318 36.9497455 81.8663318 36.1532455 82.2332864 35.9372455 85.8291955 33.8214273 89.4692864 31.7817 93.13515 29.7886091 93.4701955 29.6057455 94.0641955 29.9002909 94.9367864 30.0340636M84.7422 45.5583273C85.9056545 43.1823273 96.6320182 40.2761455 99.3811091 41.5917818 97.8556091 43.7542364 87.4802455 46.5659182 84.7422 45.5583273M77.4290045 30.8310545C77.2805045 30.1081909 76.7969591 29.1226909 77.06205 28.8416455 79.7718682 25.9612364 82.5798682 23.1704182 85.4394136 20.4372818 85.7192318 20.1697364 86.6016409 20.3206909 87.0630955 20.5538727 87.2790955 20.6643273 87.3785045 21.6510545 87.1588227 21.8756455 84.3287318 24.7720091 81.4323682 27.6045545 78.5409136 30.4420091 78.4108227 30.5696455 78.1665955 30.5794636 77.4290045 30.8310545M77.69925 13.0800273C77.55075 13.8949364 77.5937045 14.8129364 77.2206136 15.5088 75.8718409 18.0161182 74.4494318 20.4927545 72.9018409 22.8810273 72.4931591 23.5118455 71.5371136 23.7867545 70.8338864 24.2236636 70.7688409 23.4063 70.3748864 22.4195727 70.6939773 21.8010273 72.0488864 19.1832545 73.5645682 16.6428 75.1354773 14.1453 75.5380227 13.5046636 76.3553864 13.1254364 76.9812955 12.6259364 77.2206136 12.7768909 77.4599318 12.9278455 77.69925 13.0800273M67.2080318 8.04023182C66.0445773 12.1209136 65.0382136 15.7340045 63.9410318 19.3164136 63.8575773 19.5900955 63.1028045 19.8060955 62.68185 19.7729591 62.4106227 19.7508682 61.9098955 19.1531864 61.9688045 18.9396409 62.9530773 15.3854591 63.9962591 11.8484591 65.0909864 8.32741364 65.13885 8.17400455 65.8113955 8.21818636 67.2080318 8.04023182M71.4267818 64.3066364C74.0187818 64.8282273 76.3101 65.2356818 78.5670545 65.7891818 79.0248273 65.9008636 79.5881455 66.5353636 79.6482818 66.9894545 79.6887818 67.2999545 78.8984182 68.0719091 78.5572364 68.0277273 75.6547364 67.6583182 72.7632818 67.1895 69.8939182 66.6212727 69.6018273 66.5635909 69.4741909 65.6664545 69.2704636 65.1583636 70.0534636 64.8490909 70.8376909 64.5385909 71.4267818 64.3066364M18.8560636 70.7905636C18.5099727 70.5328364 18.0080182 70.1572909 17.5048364 69.7829727 17.9049273 69.2675182 18.2080636 68.4501545 18.7198364 68.2881545 20.9448818 67.5849273 23.2128818 66.9860182 25.5042 66.5478818 26.1018818 66.4337455 26.8370182 67.0302 27.5083364 67.2989727 27.1021091 67.8193364 26.7916091 68.6440636 26.2724727 68.8072909 23.9541545 69.5399727 21.5769273 70.0848818 18.8560636 70.7905636M53.6936727 17.5875545C52.4909455 15.9061909 51.8294455 8.6481 52.6774909 7.44537273 52.8849 7.15082727 53.3623091 6.78387273 53.6175818 6.84769091 54.0311727 6.95078182 54.5085818 7.30669091 54.7049455 7.68714545 55.4449909 9.12428182 54.7859455 15.9098727 53.6936727 17.5875545M44.8493318 65.8635545C41.7320591 66.2022818 38.6172409 66.5716909 35.4938318 66.8343273 35.1845591 66.8601 34.6850591 66.2869636 34.53165 65.8905545 34.4297864 65.6316 34.7010136 65.0989636 34.9599682 64.8486 35.9921045 63.8520545 43.4367409 63.7833273 44.7315136 64.7099182 44.7707864 65.0940545 44.8100591 65.4794182 44.8493318 65.8635545M62.9503773 65.5771091C59.0366045 65.5771091 55.8861955 65.6139273 52.7406955 65.4961091 52.5296045 65.4875182 52.00065 64.0332 52.2387409 63.7104273 53.1825136 62.4340636 61.0407409 63.3569727 62.9503773 65.5771091M41.2502318 8.262C43.6213227 9.09409091 45.1873227 14.2854545 43.9858227 17.3290909 41.78655 16.1644091 40.3236409 11.3166818 41.2502318 8.262M32.7670773 20.4688227C31.7754409 18.1026409 30.7838045 15.7376864 29.7909409 13.3715045 30.2327591 13.2389591 31.0096227 12.9075955 31.0673045 13.0033227 32.3093045 15.1019591 33.5108045 17.2288227 34.6067591 19.4084591 34.76385 19.7201864 34.3330773 20.3276864 34.1747591 20.7989591 33.7059409 20.6897318 33.2358955 20.5792773 32.7670773 20.4688227M26.4006 24.7270909C25.2960545 25.1811818 24.6762818 25.6806818 24.1964182 25.5714545 23.5705091 25.4290909 22.9286455 24.9013636 22.5150545 24.3662727 21.6375545 23.2273636 20.9036455 21.9804545 20.1096 20.7765 20.6238273 20.6071364 21.3908727 20.1334091 21.6130091 20.3162727 23.1348273 21.5815909 24.5437364 22.9831364 26.4006 24.7270909M19.1778545 32.2836545C18.1874455 33.1047 17.5909909 33.8017909 17.4167182 33.7097455 15.8139 32.8555636 14.2822636 31.8627 12.7309909 30.9115636 13.0684909 30.5090182 13.5704455 29.7027 13.7214 29.7640636 15.4027636 30.4464273 17.0301273 31.2625636 19.1778545 32.2836545M13.3260955 43.9655727C11.4827318 43.5114818 9.64059545 43.0586182 7.17500455 42.4523455 10.0676864 40.2113455 12.3246409 40.6924364 13.3260955 43.9655727M11.8250182 54.5795182C10.5658364 54.6691091 9.29560909 54.8826545 8.0487 54.7918364 7.54060909 54.7550182 7.08038182 54.0591545 6.59806364 53.6639727 6.99692727 53.2651091 7.41051818 52.5115636 7.79097273 52.5287455 9.2232 52.5925636 10.6456091 52.9067455 12.0704727 53.1252 11.9894727 53.6099727 11.9072455 54.0947455 11.8250182 54.5795182"/>
  </g>
</svg>
