<svg xmlns="http://www.w3.org/2000/svg" width="558" height="129" viewBox="0 0 558 129">
  <g fill="none" fill-rule="evenodd">
    <g fill="#54565A" fill-rule="nonzero" transform="translate(0 80.243)">
      <polygon points="0 .727 4.951 .727 4.951 12.058 17.779 12.058 17.779 .727 22.73 .727 22.73 27.264 17.779 27.264 17.779 16.495 4.951 16.495 4.951 27.264 0 27.264"/>
      <polygon points="40.25 .727 59.192 .727 59.192 5.164 45.201 5.164 45.201 11.721 57.756 11.721 57.756 16.158 45.201 16.158 45.201 22.869 59.629 22.869 59.629 27.306 40.25 27.306"/>
      <path d="M94.86,27.2641633 L92.5760294,21.6478367 L79.9389706,21.6478367 L77.655,27.2641633 L72.4852941,27.2641633 L83.8230882,0.727020408 L88.9517647,0.727020408 L100.139118,27.2641633 L94.86,27.2641633 Z M81.7169118,17.2530612 L90.7980882,17.2530612 L86.2985294,6.14677551 L81.7169118,17.2530612 Z"/>
      <polygon points="114.404 .727 119.341 .727 119.341 22.673 130.501 22.673 130.501 27.264 114.404 27.264"/>
      <polygon points="142.577 .727 163.653 .727 163.653 5.234 155.611 5.234 155.611 27.264 150.619 27.264 150.619 5.234 142.577 5.234"/>
      <polygon points="178.245 .727 183.265 .727 183.265 12.058 196.148 12.058 196.148 .727 201.044 .727 201.044 27.264 196.093 27.264 196.093 16.495 183.265 16.495 183.265 27.264 178.314 27.264"/>
      <path d="M291.035294 5.61322449C289.848949 5.19996153 288.608677 4.97275325 287.356324 4.93926531 286.37852 4.8875593 285.406448 5.12122998 284.552647 5.61322449 283.9014 6.00924024 283.505235 6.73170001 283.513235 7.50873469 283.498913 8.19796247 283.760981 8.86297333 284.238088 9.34808163 284.759318 9.86864851 285.371881 10.2831387 286.043382 10.5696327 286.781912 10.8785306 287.766618 11.229551 289.024853 11.6086531 290.48896 12.0393325 291.923588 12.5693697 293.319265 13.1952653 294.447024 13.7337132 295.432083 14.5427544 296.191324 15.5541224 297.018345 16.7422578 297.432565 18.1812004 297.3675 19.64 297.395243 21.1478916 296.94926 22.6248712 296.095588 23.8522449 295.208673 25.1131471 293.989145 26.0874792 292.580735 26.6604082 290.95366 27.3215363 289.215356 27.6460115 287.465735 27.6151837 285.44258 27.6103625 283.438348 27.2150316 281.5575 26.4497959 279.722212 25.7275445 278.023677 24.682224 276.538235 23.3608163L278.603382 19.0362449C279.891925 20.2689478 281.382876 21.2577039 283.007206 21.9567347 284.434375 22.6255175 285.979357 22.9886099 287.547794 23.0238367 288.683311 23.0919572 289.81257 22.8082362 290.789118 22.2094694 291.44058 21.7744053 291.869522 21.0641304 291.959407 20.2716138 292.049292 19.4790972 291.790785 18.6866445 291.254118 18.109551 290.729358 17.5869931 290.105565 17.1807624 289.421471 16.9160816 288.682941 16.6212245 287.684559 16.2702041 286.398971 15.891102 284.940115 15.4748254 283.510012 14.958844 282.118235 14.3466122 281.000859 13.829406 280.024092 13.038746 279.273529 12.0439184 278.442622 10.8790656 278.027326 9.45621525 278.097353 8.01420408 278.067376 6.57101098 278.48396 5.15523396 279.287206 3.97044898 280.15691 2.77164293 281.336761 1.84737086 282.692647 1.30269388 284.305018.64020282 286.030196.315573957 287.766618.347918367 289.448689.34994485 291.121366.605401546 292.731176 1.10612245 294.277795 1.57157656 295.751562 2.26189573 297.107647 3.15608163L295.110882 7.59297959C293.833041 6.77057571 292.46503 6.10605117 291.035294 5.61322449zM328.631912 5.85191837C327.453265 5.25556847 326.157534 4.94341612 324.843529 4.93926531 323.301684 4.92655486 321.783444 5.32832807 320.439706 6.10465306 319.124842 6.87395704 318.037748 7.99486411 317.294118 9.34808163 315.762128 12.1619969 315.762128 15.5904929 317.294118 18.4044082 318.032803 19.7640062 319.1147 20.8941273 320.426029 21.6759184 321.762602 22.4733694 323.284043 22.8856914 324.829853 22.8693878 326.107478 22.8563903 327.368923 22.5744421 328.536176 22.0409796 329.770742 21.4878675 330.893367 20.7020506 331.845882 19.7242449L334.758971 23.0519184C333.409216 24.4694255 331.807591 25.6085158 330.040588 26.4076735 328.323504 27.2145805 326.458405 27.6358333 324.57 27.6432653 322.173162 27.6689306 319.812893 27.0389123 317.731765 25.8179592 315.703477 24.6526515 314.020856 22.9446137 312.862941 20.8755918 311.677174 18.7733159 311.063139 16.3826704 311.085 13.9534694 311.054191 9.05333589 313.642926 4.53039363 317.8275 2.17322449 321.624569.0594234804 326.149119-.177991978 330.136324 1.52734694 331.864045 2.21096322 333.430442 3.26390318 334.731618 4.61632653L331.859559 8.32310204C330.959883 7.28112626 329.861292 6.44001179 328.631912 5.85191837z"/>
      <polygon points="349.913 .727 354.863 .727 354.863 12.058 367.747 12.058 367.747 .727 372.697 .727 372.697 27.264 367.747 27.264 367.747 16.495 354.863 16.495 354.863 27.264 349.913 27.264"/>
      <path d="M408.926471,2.17322449 C412.032079,3.94681078 414.309751,6.93125921 415.244156,10.4513281 C416.178562,13.971397 415.690728,17.729586 413.891029,20.8755918 C412.70038,22.9523607 410.985019,24.6600545 408.926471,25.8179592 C404.56422,28.2524194 399.297692,28.2524194 394.935441,25.8179592 C390.703027,23.4563835 388.076255,18.8988772 388.097206,13.9534694 C388.070169,9.0280539 390.702949,4.49255866 394.935441,2.17322449 C399.311882,-0.203242997 404.55003,-0.203242997 408.926471,2.17322449 Z M397.616029,6.13273469 C395.586706,7.34136792 394.108955,9.32901177 393.508609,11.6574046 C392.908263,13.9857974 393.234625,16.4637231 394.415735,18.5448163 C395.195858,19.9077404 396.302148,21.0435025 397.629706,21.8444082 C398.956664,22.6425356 400.468276,23.0596038 402.006176,23.0519184 C403.526592,23.0578329 405.020138,22.6405332 406.327941,21.8444082 C407.642327,21.0449508 408.731171,19.9077427 409.487206,18.5448163 C410.260333,17.1455696 410.661253,15.562117 410.649706,13.9534694 C410.660961,12.3537492 410.2599,10.7794293 409.487206,9.39020408 C408.729556,8.03954909 407.640263,6.91639582 406.327941,6.13273469 C405.019038,5.34087125 403.525401,4.92839862 402.006176,4.93926531 C400.456073,4.92320726 398.93029,5.33542586 397.588676,6.13273469 L397.616029,6.13273469 Z"/>
      <polygon points="431.11 .727 436.061 .727 436.061 22.673 447.221 22.673 447.221 27.264 431.11 27.264"/>
      <path d="M481.480147 27.2641633L479.196176 21.6478367 466.559118 21.6478367 464.275147 27.2641633 459.132794 27.2641633 470.470588.727020408 475.612941.727020408 486.800294 27.2641633 481.480147 27.2641633zM468.337059 17.2530612L477.418235 17.2530612 472.918676 6.10465306 468.337059 17.2530612zM517.189412 27.2641633L512.717206 19.4153469C512.412064 19.4349648 512.106025 19.4349648 511.800882 19.4153469L506.029412 19.4153469 506.029412 27.2220408 501.078529 27.2220408 501.078529.727020408 511.869265.727020408C514.648497.549369585 517.398257 1.39577593 519.623824 3.11395918 521.489579 4.82022567 522.496447 7.30625342 522.359118 9.86759184 522.415297 11.7263637 521.965349 13.5643782 521.059853 15.1750204 520.15367 16.6614341 518.813505 17.8161804 517.230441 18.4746122L522.919853 27.2641633 517.189412 27.2641633zM506.029412 14.978449L511.869265 14.978449C513.393893 15.0816041 514.906335 14.6400918 516.15 13.7288163 517.181612 12.7936227 517.728059 11.4170833 517.627059 10.008 517.723429 8.62406956 517.175514 7.27508354 516.15 6.37142857 514.893599 5.4913791 513.387272 5.06647422 511.869265 5.16391837L506.029412 5.16391837 506.029412 14.978449zM550.956618 5.61322449C549.770272 5.19996153 548.53 4.97275325 547.277647 4.93926531 546.300045 4.889854 545.328584 5.12337792 544.473971 5.61322449 543.825878 6.01067668 543.43455 6.73383356 543.448235 7.50873469 543.428687 8.19619257 543.685941 8.8615397 544.159412 9.34808163 544.68342 9.8717672 545.301068 10.2865555 545.978382 10.5696327 546.949384 10.9686942 547.939994 11.3155051 548.946176 11.6086531 550.411017 12.0369951 551.845796 12.5670882 553.240588 13.1952653 554.368347 13.7337132 555.353407 14.5427544 556.112647 15.5541224 556.939669 16.7422578 557.353889 18.1812004 557.288824 19.64 557.316566 21.1478916 556.870584 22.6248712 556.016912 23.8522449 555.129997 25.1131471 553.910469 26.0874792 552.502059 26.6604082 550.879746 27.3215008 549.145915 27.6460087 547.400735 27.6151837 545.373011 27.6117891 543.364041 27.2164388 541.478824 26.4497959 539.643535 25.7275445 537.945 24.682224 536.459559 23.3608163L538.524706 19.0362449C539.824682 20.2567209 541.324902 21.2312215 542.955882 21.9146122 544.383052 22.583395 545.928034 22.9464874 547.496471 22.9817143 548.631988 23.0498348 549.761247 22.7661138 550.737794 22.1673469 551.389257 21.7322829 551.818198 21.022008 551.908083 20.2294914 551.997968 19.4369747 551.739461 18.644522 551.202794 18.0674286 550.679703 17.5495193 550.061342 17.1437985 549.383824 16.8739592 548.645294 16.579102 547.633235 16.2280816 546.347647 15.8489796 544.888792 15.432703 543.458688 14.9167216 542.066912 14.3044898 540.949535 13.7872835 539.972768 12.9966236 539.222206 12.0017959 538.391298 10.8369432 537.976002 9.41409281 538.046029 7.97208163 538.016052 6.52888853 538.432637 5.11311152 539.235882 3.92832653 540.105586 2.72952048 541.285437 1.80524841 542.641324 1.26057143 544.253695.598080371 545.978872.273451508 547.715294.305795918 549.39744.306804745 551.07026.562283464 552.679853 1.064 554.227468 1.52670332 555.701608 2.21719749 557.056324 3.11395918L555.059559 7.55085714C553.771155 6.74107092 552.393931 6.09067021 550.956618 5.61322449z"/>
    </g>
    <g transform="translate(189.503 .708)">
      <path fill="#58595B" d="M56.5331405,95.960314 C56.877696,85.9300851 60.988323,75.9816785 68.9551668,67.9491136 L61.224704,64.5484947 C56.877696,69.4797912 53.640477,75.0516971 51.5170537,80.9409143 C49.389624,75.0417187 46.1443922,69.4598345 41.7833615,64.5205554 L34.0508955,67.9191785 C42.0397749,75.9617218 46.1584148,85.9221024 46.500967,95.960314 L46.5109832,95.960314 C46.256573,106.106292 42.1259137,116.186412 34.0528987,124.314769 L41.7853647,127.715388 C46.1423889,122.774114 49.389624,117.194225 51.519057,111.299021 C53.640477,117.182251 56.877696,122.752161 61.2267073,127.685453 L68.9551668,124.28683 C60.9041873,116.16446 56.7815409,106.094318 56.5251276,95.960314 L56.5331405,95.960314 Z"/>
      <path fill="#78D64B" d="M85.598267,36.8257426 C82.2001428,40.1841584 82.2001428,45.6356436 85.598267,48.9980198 C88.9963911,52.3584158 102.703094,53.7326733 102.703094,53.7326733 C102.703094,53.7326733 101.314591,40.1841584 97.9124599,36.8277228 C94.5143357,33.4673267 88.9963911,33.4673267 85.598267,36.8257426"/>
      <path fill="#70D44B" d="M85.598267 27.5956436C82.2001428 24.2352475 82.2001428 18.7837624 85.598267 15.4253465 88.9963911 12.0629703 102.703094 10.6906931 102.703094 10.6906931 102.703094 10.6906931 101.314591 24.2352475 97.9124599 27.5936634 94.5143357 30.9540594 88.9963911 30.9540594 85.598267 27.5956436M66.4387373 46.9451485C69.8368614 43.5887129 75.354806 43.5887129 78.7549338 46.9451485 82.1570652 50.3055446 83.5435639 63.850099 83.5435639 63.850099 83.5435639 63.850099 69.8388651 62.479802 66.4387373 59.1174257 63.0426167 55.7570297 63.0426167 50.3055446 66.4387373 46.9451485M57.4421234 32.6312871C57.4421234 27.8788119 61.3391467 24.0213861 66.1498166 24.0213861 70.9584829 24.0213861 81.6277112 32.6312871 81.6277112 32.6312871 81.6277112 32.6312871 70.9584829 41.2411881 66.1498166 41.2411881 61.3391467 41.2411881 57.4421234 37.3817822 57.4421234 32.6312871M66.4387373 18.1859406C63.0426167 14.8275248 63.0386095 9.37405941 66.4387373 6.01564356 69.8368614 2.65326733 83.5435639 1.2829703 83.5435639 1.2829703 83.5435639 1.2829703 82.1570652 14.8275248 78.7529302 18.1859406 75.354806 21.5483168 69.8368614 21.5483168 66.4387373 18.1859406M51.73063 40.0512871C56.5392963 40.0512871 60.4403268 43.9047525 60.4403268 48.6592079 60.4403268 53.409703 51.73063 63.9582178 51.73063 63.9582178 51.73063 63.9582178 43.0189296 53.409703 43.0189296 48.6592079 43.0189296 43.9047525 46.9219637 40.0512871 51.73063 40.0512871M51.73063 24.7645545C56.5392963 24.7645545 60.4403268 20.9130693 60.4403268 16.1586139 60.4403268 11.4061386 51.73063.861584158 51.73063.861584158 51.73063.861584158 43.0189296 11.4061386 43.0189296 16.1586139 43.0189296 20.9130693 46.9219637 24.7645545 51.73063 24.7645545M36.9187357 46.9451485C33.5166043 43.5887129 28.002667 43.5887129 24.6005356 46.9451485 21.2024114 50.3055446 19.8119054 63.850099 19.8119054 63.850099 19.8119054 63.850099 33.5166043 62.479802 36.9167321 59.1174257 40.3168599 55.7570297 40.3168599 50.3055446 36.9187357 46.9451485M46.0191366 32.6312871C46.0191366 27.8788119 42.1221133 24.0213861 37.3074362 24.0213861 32.5027772 24.0213861 21.8295417 32.6312871 21.8295417 32.6312871 21.8295417 32.6312871 32.5027772 41.2411881 37.3074362 41.2411881 42.1221133 41.2411881 46.0191366 37.3817822 46.0191366 32.6312871M36.9187357 18.1859406C40.3168599 14.8275248 40.3168599 9.37405941 36.9187357 6.01564356 33.5166043 2.65326733 19.8119054 1.2829703 19.8119054 1.2829703 19.8119054 1.2829703 21.2024114 14.8275248 24.6005356 18.1859406 28.002667 21.5483168 33.5166043 21.5483168 36.9187357 18.1859406M17.759206 36.8257426C21.1573302 40.1841584 21.1573302 45.6356436 17.759206 48.9980198 14.3610818 52.3584158.656382947 53.7326733.656382947 53.7326733.656382947 53.7326733 2.04288172 40.1841584 5.44501312 36.8277228 8.8451409 33.4673267 14.3610818 33.4673267 17.759206 36.8257426M17.759206 27.5956436C21.1573302 24.2352475 21.1573302 18.7837624 17.759206 15.4253465 14.3610818 12.0629703.656382947 10.6906931.656382947 10.6906931.656382947 10.6906931 2.04288172 24.2352475 5.44501312 27.5936634 8.8451409 30.9540594 14.3610818 30.9540594 17.759206 27.5956436"/>
    </g>
  </g>
</svg>
