<svg xmlns="http://www.w3.org/2000/svg" width="461" height="167" viewBox="0 0 461 167">
  <g fill="none" fill-rule="evenodd" transform="translate(-1 -2)">
    <g transform="translate(131 86)">
      <polygon fill="#FFF" points="30.593 .048 30.593 31.323 26.099 31.323 26.099 17.383 8.036 17.383 8.036 31.323 3.542 31.323 3.542 .048 8.036 .048 8.036 13.496 26.099 13.496 26.099 .048"/>
      <polygon stroke="#FFF" points="30.593 .048 30.593 31.323 26.099 31.323 26.099 17.383 8.036 17.383 8.036 31.323 3.542 31.323 3.542 .048 8.036 .048 8.036 13.496 26.099 13.496 26.099 .048"/>
      <polygon fill="#FFF" points="74.046 27.437 74.046 31.324 51.219 31.324 51.219 .049 73.418 .049 73.418 3.934 55.712 3.934 55.712 13.543 71.486 13.543 71.486 17.338 55.712 17.338 55.712 27.437"/>
      <polygon stroke="#FFF" points="74.046 27.437 74.046 31.324 51.219 31.324 51.219 .049 73.418 .049 73.418 3.934 55.712 3.934 55.712 13.543 71.486 13.543 71.486 17.338 55.712 17.338 55.712 27.437"/>
      <path fill="#FFF" d="M110.984639,19.9297846 L104.198729,4.60629744 L97.4149325,19.9297846 L110.984639,19.9297846 Z M112.557939,23.5041436 L95.8416331,23.5041436 L92.3820662,31.3235795 L87.7530981,31.3235795 L101.997378,0.0479384615 L106.446601,0.0479384615 L120.735289,31.3235795 L116.017506,31.3235795 L112.557939,23.5041436 Z"/>
      <path stroke="#FFF" d="M110.984639,19.9297846 L104.198729,4.60629744 L97.4149325,19.9297846 L110.984639,19.9297846 Z M112.557939,23.5041436 L95.8416331,23.5041436 L92.3820662,31.3235795 L87.7530981,31.3235795 L101.997378,0.0479384615 L106.446601,0.0479384615 L120.735289,31.3235795 L116.017506,31.3235795 L112.557939,23.5041436 Z"/>
      <polygon fill="#FFF" points="136.643 .048 141.137 .048 141.137 27.436 158.168 27.436 158.168 31.323 136.643 31.323"/>
      <polygon stroke="#FFF" points="136.643 .048 141.137 .048 141.137 27.436 158.168 27.436 158.168 31.323 136.643 31.323"/>
      <polygon fill="#FFF" points="180.814 3.935 170.029 3.935 170.029 .047 196.047 .047 196.047 3.935 185.263 3.935 185.263 31.323 180.814 31.323"/>
      <polygon stroke="#FFF" points="180.814 3.935 170.029 3.935 170.029 .047 196.047 .047 196.047 3.935 185.263 3.935 185.263 31.323 180.814 31.323"/>
      <polygon fill="#FFF" points="239.185 .048 239.185 31.323 234.692 31.323 234.692 17.383 216.628 17.383 216.628 31.323 212.135 31.323 212.135 .048 216.628 .048 216.628 13.496 234.692 13.496 234.692 .048"/>
      <polygon stroke="#FFF" points="239.185 .048 239.185 31.323 234.692 31.323 234.692 17.383 216.628 17.383 216.628 31.323 212.135 31.323 212.135 .048 216.628 .048 216.628 13.496 234.692 13.496 234.692 .048"/>
      <path fill="#FFF" d="M5.85715669,80.5387179 C3.65369172,79.8091282 1.92602293,78.8629744 0.66569172,77.7002564 L2.32992102,74.2163077 C3.52681274,75.2886154 5.06204841,76.1590769 6.93562803,76.8297949 C8.80709299,77.5005128 10.7314242,77.8348205 12.7086217,77.8348205 C15.3159847,77.8348205 17.2614624,77.3974872 18.5492841,76.5186154 C19.8371057,75.6397436 20.4820739,74.4686154 20.4820739,73.0094359 C20.4820739,71.9371282 20.131042,71.0666667 19.4268637,70.3959487 C18.7226854,69.7252308 17.855679,69.2122051 16.8216153,68.8547692 C15.7854369,68.4973333 14.3263287,68.0957436 12.4400611,67.6478974 C10.0716535,67.0844103 8.16212484,66.5167179 6.70936051,65.9511282 C5.25659618,65.3855385 4.01529682,64.5150769 2.98123312,63.3355385 C1.94505478,62.1602051 1.42908025,60.5748718 1.42908025,58.5795385 C1.42908025,56.9122051 1.87104204,55.4067692 2.75496561,54.0653333 C3.63888917,52.7238974 4.97957707,51.6536923 6.77914395,50.8484103 C8.57448153,50.0452308 10.8054369,49.643641 13.4741248,49.643641 C15.3286726,49.643641 17.1578446,49.8812308 18.9531822,50.3585128 C20.752749,50.8336923 22.2943287,51.5191282 23.584265,52.4127179 L22.1018955,55.9870769 C20.7823541,55.1544615 19.3761121,54.5215897 17.8768255,54.0884615 C16.3775389,53.6574359 14.909972,53.4408718 13.4741248,53.4408718 C10.9238573,53.4408718 9.01644331,53.9034359 7.74553885,54.8264615 C6.46829045,55.7494872 5.83178089,56.9395385 5.83178089,58.4008205 C5.83178089,59.4710256 6.19127134,60.3435897 6.91236688,61.0143077 C7.63134777,61.6829231 8.52161529,62.204359 9.58739873,62.5765128 C10.6489529,62.9507692 12.0932586,63.3439487 13.9224306,63.762359 C16.2887236,64.3279487 18.1897936,64.895641 19.6298701,65.4591282 C21.0657172,66.0268205 22.3027873,66.8888718 23.336851,68.0515897 C24.3688,69.2122051 24.8868892,70.7744103 24.8868892,72.7424103 C24.8868892,74.3803077 24.4364688,75.8773333 23.5377427,77.2334872 C22.6411312,78.5875385 21.2750675,79.6598462 19.4501248,80.4483077 C17.6209529,81.2388718 15.3751949,81.6341538 12.7086217,81.6341538 C10.3423287,81.6341538 8.05850701,81.2704103 5.85715669,80.5387179"/>
      <path stroke="#FFF" d="M5.85715669,80.5387179 C3.65369172,79.8091282 1.92602293,78.8629744 0.66569172,77.7002564 L2.32992102,74.2163077 C3.52681274,75.2886154 5.06204841,76.1590769 6.93562803,76.8297949 C8.80709299,77.5005128 10.7314242,77.8348205 12.7086217,77.8348205 C15.3159847,77.8348205 17.2614624,77.3974872 18.5492841,76.5186154 C19.8371057,75.6397436 20.4820739,74.4686154 20.4820739,73.0094359 C20.4820739,71.9371282 20.131042,71.0666667 19.4268637,70.3959487 C18.7226854,69.7252308 17.855679,69.2122051 16.8216153,68.8547692 C15.7854369,68.4973333 14.3263287,68.0957436 12.4400611,67.6478974 C10.0716535,67.0844103 8.16212484,66.5167179 6.70936051,65.9511282 C5.25659618,65.3855385 4.01529682,64.5150769 2.98123312,63.3355385 C1.94505478,62.1602051 1.42908025,60.5748718 1.42908025,58.5795385 C1.42908025,56.9122051 1.87104204,55.4067692 2.75496561,54.0653333 C3.63888917,52.7238974 4.97957707,51.6536923 6.77914395,50.8484103 C8.57448153,50.0452308 10.8054369,49.643641 13.4741248,49.643641 C15.3286726,49.643641 17.1578446,49.8812308 18.9531822,50.3585128 C20.752749,50.8336923 22.2943287,51.5191282 23.584265,52.4127179 L22.1018955,55.9870769 C20.7823541,55.1544615 19.3761121,54.5215897 17.8768255,54.0884615 C16.3775389,53.6574359 14.909972,53.4408718 13.4741248,53.4408718 C10.9238573,53.4408718 9.01644331,53.9034359 7.74553885,54.8264615 C6.46829045,55.7494872 5.83178089,56.9395385 5.83178089,58.4008205 C5.83178089,59.4710256 6.19127134,60.3435897 6.91236688,61.0143077 C7.63134777,61.6829231 8.52161529,62.204359 9.58739873,62.5765128 C10.6489529,62.9507692 12.0932586,63.3439487 13.9224306,63.762359 C16.2887236,64.3279487 18.1897936,64.895641 19.6298701,65.4591282 C21.0657172,66.0268205 22.3027873,66.8888718 23.336851,68.0515897 C24.3688,69.2122051 24.8868892,70.7744103 24.8868892,72.7424103 C24.8868892,74.3803077 24.4364688,75.8773333 23.5377427,77.2334872 C22.6411312,78.5875385 21.2750675,79.6598462 19.4501248,80.4483077 C17.6209529,81.2388718 15.3751949,81.6341538 12.7086217,81.6341538 C10.3423287,81.6341538 8.05850701,81.2704103 5.85715669,80.5387179 Z"/>
      <path fill="#FFF" d="M48.2286038,79.5551385 C45.6973682,78.1716513 43.7138268,76.2646256 42.2779796,73.8361641 C40.8379032,71.4098051 40.1189223,68.6764718 40.1189223,65.6382667 C40.1189223,62.6000615 40.8379032,59.8688308 42.2779796,57.4382667 C43.7138268,55.0119077 45.7058268,53.1048821 48.2539796,51.7213949 C50.7979032,50.3358051 53.6442217,49.641959 56.7908204,49.641959 C59.2480433,49.641959 61.4938013,50.0540615 63.5302089,50.8698564 C65.5666166,51.6898564 67.3048586,52.9030359 68.7428204,54.5136 L65.8224892,57.3289333 C63.4561962,54.8563179 60.5041452,53.6200103 56.9705656,53.6200103 C54.6338777,53.6200103 52.519228,54.1414462 50.6350752,55.1822154 C48.746693,56.2250872 47.2706675,57.663241 46.2091134,59.4945744 C45.1433299,61.3259077 44.6125529,63.3759077 44.6125529,65.6382667 C44.6125529,67.9027282 45.1433299,69.9506256 46.2091134,71.781959 C47.2706675,73.6132923 48.746693,75.0493436 50.6350752,76.0943179 C52.519228,77.1371897 54.6338777,77.6565231 56.9705656,77.6565231 C60.4745401,77.6565231 63.4265911,76.4054974 65.8224892,73.9034462 L68.7428204,76.7166769 C67.3048586,78.327241 65.558158,79.5488308 63.5090624,80.3835487 C61.4557376,81.2161641 59.201521,81.6324718 56.7442981,81.6324718 C53.599814,81.6324718 50.7598395,80.9407282 48.2286038,79.5551385"/>
      <path stroke="#FFF" d="M48.2286038,79.5551385 C45.6973682,78.1716513 43.7138268,76.2646256 42.2779796,73.8361641 C40.8379032,71.4098051 40.1189223,68.6764718 40.1189223,65.6382667 C40.1189223,62.6000615 40.8379032,59.8688308 42.2779796,57.4382667 C43.7138268,55.0119077 45.7058268,53.1048821 48.2539796,51.7213949 C50.7979032,50.3358051 53.6442217,49.641959 56.7908204,49.641959 C59.2480433,49.641959 61.4938013,50.0540615 63.5302089,50.8698564 C65.5666166,51.6898564 67.3048586,52.9030359 68.7428204,54.5136 L65.8224892,57.3289333 C63.4561962,54.8563179 60.5041452,53.6200103 56.9705656,53.6200103 C54.6338777,53.6200103 52.519228,54.1414462 50.6350752,55.1822154 C48.746693,56.2250872 47.2706675,57.663241 46.2091134,59.4945744 C45.1433299,61.3259077 44.6125529,63.3759077 44.6125529,65.6382667 C44.6125529,67.9027282 45.1433299,69.9506256 46.2091134,71.781959 C47.2706675,73.6132923 48.746693,75.0493436 50.6350752,76.0943179 C52.519228,77.1371897 54.6338777,77.6565231 56.9705656,77.6565231 C60.4745401,77.6565231 63.4265911,76.4054974 65.8224892,73.9034462 L68.7428204,76.7166769 C67.3048586,78.327241 65.558158,79.5488308 63.5090624,80.3835487 C61.4557376,81.2161641 59.201521,81.6324718 56.7442981,81.6324718 C53.599814,81.6324718 50.7598395,80.9407282 48.2286038,79.5551385 Z"/>
      <polygon fill="#FFF" points="113.409 50 113.409 81.276 108.915 81.276 108.915 67.336 90.852 67.336 90.852 81.276 86.358 81.276 86.358 50 90.852 50 90.852 63.448 108.915 63.448 108.915 50"/>
      <polygon stroke="#FFF" points="113.409 50 113.409 81.276 108.915 81.276 108.915 67.336 90.852 67.336 90.852 81.276 86.358 81.276 86.358 50 90.852 50 90.852 63.448 108.915 63.448 108.915 50"/>
      <path fill="#FFF" d="M154.458876,76.0932667 C156.300736,75.0503949 157.753501,73.612241 158.817169,71.7809077 C159.878724,69.9495744 160.411615,67.9016769 160.411615,65.6372154 C160.411615,63.3748564 159.878724,61.326959 158.817169,59.4935231 C157.753501,57.6621897 156.300736,56.2261385 154.458876,55.1832667 C152.617017,54.1424974 150.540431,53.6210615 148.235462,53.6210615 C145.92838,53.6210615 143.839106,54.1424974 141.965526,55.1832667 C140.094061,56.2261385 138.626494,57.6621897 137.562825,59.4935231 C136.499157,61.326959 135.966265,63.3748564 135.966265,65.6372154 C135.966265,67.9016769 136.499157,69.9495744 137.562825,71.7809077 C138.626494,73.612241 140.094061,75.0503949 141.965526,76.0932667 C143.839106,77.1361385 145.92838,77.6554718 148.235462,77.6554718 C150.540431,77.6554718 152.617017,77.1361385 154.458876,76.0932667 M139.652099,79.5540872 C137.106061,78.1706 135.105603,76.2572667 133.652838,73.8140872 C132.200074,71.3730103 131.472634,68.6459846 131.472634,65.6372154 C131.472634,62.6305487 132.200074,59.9056256 133.652838,57.4624462 C135.105603,55.0213692 137.106061,53.1038308 139.652099,51.7203436 C142.198138,50.3347538 145.059259,49.6430103 148.235462,49.6430103 C151.379946,49.6430103 154.226265,50.3347538 156.772303,51.7203436 C159.318341,53.1038308 161.310341,55.012959 162.748303,57.4393179 C164.18838,59.8677795 164.905246,62.5990103 164.905246,65.6372154 C164.905246,68.6775231 164.18838,71.4087538 162.748303,73.8372154 C161.310341,76.2635744 159.318341,78.1706 156.772303,79.5540872 C154.226265,80.9417795 151.379946,81.6335231 148.235462,81.6335231 C145.059259,81.6335231 142.198138,80.9417795 139.652099,79.5540872"/>
      <path stroke="#FFF" d="M154.458876,76.0932667 C156.300736,75.0503949 157.753501,73.612241 158.817169,71.7809077 C159.878724,69.9495744 160.411615,67.9016769 160.411615,65.6372154 C160.411615,63.3748564 159.878724,61.326959 158.817169,59.4935231 C157.753501,57.6621897 156.300736,56.2261385 154.458876,55.1832667 C152.617017,54.1424974 150.540431,53.6210615 148.235462,53.6210615 C145.92838,53.6210615 143.839106,54.1424974 141.965526,55.1832667 C140.094061,56.2261385 138.626494,57.6621897 137.562825,59.4935231 C136.499157,61.326959 135.966265,63.3748564 135.966265,65.6372154 C135.966265,67.9016769 136.499157,69.9495744 137.562825,71.7809077 C138.626494,73.612241 140.094061,75.0503949 141.965526,76.0932667 C143.839106,77.1361385 145.92838,77.6554718 148.235462,77.6554718 C150.540431,77.6554718 152.617017,77.1361385 154.458876,76.0932667 Z M139.652099,79.5540872 C137.106061,78.1706 135.105603,76.2572667 133.652838,73.8140872 C132.200074,71.3730103 131.472634,68.6459846 131.472634,65.6372154 C131.472634,62.6305487 132.200074,59.9056256 133.652838,57.4624462 C135.105603,55.0213692 137.106061,53.1038308 139.652099,51.7203436 C142.198138,50.3347538 145.059259,49.6430103 148.235462,49.6430103 C151.379946,49.6430103 154.226265,50.3347538 156.772303,51.7203436 C159.318341,53.1038308 161.310341,55.012959 162.748303,57.4393179 C164.18838,59.8677795 164.905246,62.5990103 164.905246,65.6372154 C164.905246,68.6775231 164.18838,71.4087538 162.748303,73.8372154 C161.310341,76.2635744 159.318341,78.1706 156.772303,79.5540872 C154.226265,80.9417795 151.379946,81.6335231 148.235462,81.6335231 C145.059259,81.6335231 142.198138,80.9417795 139.652099,79.5540872 Z"/>
      <polygon fill="#FFF" points="183.017 50 187.511 50 187.511 77.388 204.542 77.388 204.542 81.276 183.017 81.276"/>
      <polygon stroke="#FFF" points="183.017 50 187.511 50 187.511 77.388 204.542 77.388 204.542 81.276 183.017 81.276"/>
      <path fill="#FFF" d="M239.635485,69.8820821 L232.849575,54.5585949 L226.065778,69.8820821 L239.635485,69.8820821 Z M241.208785,73.456441 L224.492479,73.456441 L221.032912,81.2758769 L216.403944,81.2758769 L230.648224,50.0002359 L235.097447,50.0002359 L249.386135,81.2758769 L244.668352,81.2758769 L241.208785,73.456441 Z"/>
      <path stroke="#FFF" d="M239.635485,69.8820821 L232.849575,54.5585949 L226.065778,69.8820821 L239.635485,69.8820821 Z M241.208785,73.456441 L224.492479,73.456441 L221.032912,81.2758769 L216.403944,81.2758769 L230.648224,50.0002359 L235.097447,50.0002359 L249.386135,81.2758769 L244.668352,81.2758769 L241.208785,73.456441 Z"/>
      <path fill="#FFF" d="M283.896583,66.1285846 C285.393755,64.9090974 286.142341,63.1660718 286.142341,60.9016103 C286.142341,58.6371487 285.393755,56.9025333 283.896583,55.6956615 C282.399411,54.4908923 280.227666,53.8874564 277.381348,53.8874564 L269.743233,53.8874564 L269.743233,67.9620205 L277.381348,67.9620205 C280.227666,67.9620205 282.399411,67.3501744 283.896583,66.1285846 Z M286.277679,81.2754564 L279.493883,71.6709436 C278.654367,71.7298154 277.994596,71.7592513 277.514571,71.7592513 L269.743233,71.7592513 L269.743233,81.2754564 L265.249603,81.2754564 L265.249603,49.9998154 L277.514571,49.9998154 C281.589501,49.9998154 284.79531,50.9690974 287.131997,52.9034564 C289.468685,54.8420205 290.638087,57.5059692 290.638087,60.9016103 C290.638087,63.3132513 290.037526,65.369559 288.840634,67.0663282 C287.641628,68.7652 285.935106,70.0015077 283.716838,70.7752513 L291.175208,81.2754564 L286.277679,81.2754564 Z"/>
      <path stroke="#FFF" d="M283.896583,66.1285846 C285.393755,64.9090974 286.142341,63.1660718 286.142341,60.9016103 C286.142341,58.6371487 285.393755,56.9025333 283.896583,55.6956615 C282.399411,54.4908923 280.227666,53.8874564 277.381348,53.8874564 L269.743233,53.8874564 L269.743233,67.9620205 L277.381348,67.9620205 C280.227666,67.9620205 282.399411,67.3501744 283.896583,66.1285846 Z M286.277679,81.2754564 L279.493883,71.6709436 C278.654367,71.7298154 277.994596,71.7592513 277.514571,71.7592513 L269.743233,71.7592513 L269.743233,81.2754564 L265.249603,81.2754564 L265.249603,49.9998154 L277.514571,49.9998154 C281.589501,49.9998154 284.79531,50.9690974 287.131997,52.9034564 C289.468685,54.8420205 290.638087,57.5059692 290.638087,60.9016103 C290.638087,63.3132513 290.037526,65.369559 288.840634,67.0663282 C287.641628,68.7652 285.935106,70.0015077 283.716838,70.7752513 L291.175208,81.2754564 L286.277679,81.2754564 Z"/>
      <path fill="#FFF" d="M311.465483,80.5387179 C309.264132,79.8091282 307.534349,78.8629744 306.276132,77.7002564 L307.938247,74.2163077 C309.135139,75.2886154 310.672489,76.1590769 312.546069,76.8297949 C314.417534,77.5005128 316.341865,77.8348205 318.319062,77.8348205 C320.926425,77.8348205 322.874018,77.3974872 324.161839,76.5186154 C325.447546,75.6397436 326.092515,74.4686154 326.092515,73.0094359 C326.092515,71.9371282 325.741483,71.0666667 325.037304,70.3959487 C324.333126,69.7252308 323.464005,69.2122051 322.432056,68.8547692 C321.395878,68.4973333 319.936769,68.0957436 318.048387,67.6478974 C315.682094,67.0844103 313.772566,66.5167179 312.319801,65.9511282 C310.867037,65.3855385 309.623623,64.5150769 308.591674,63.3355385 C307.555496,62.1602051 307.039521,60.5748718 307.039521,58.5795385 C307.039521,56.9122051 307.481483,55.4067692 308.365406,54.0653333 C309.24933,52.7238974 310.590018,51.6536923 312.389585,50.8484103 C314.184922,50.0452308 316.415878,49.643641 319.084566,49.643641 C320.939113,49.643641 322.768285,49.8812308 324.563623,50.3585128 C326.36319,50.8336923 327.904769,51.5191282 329.194706,52.4127179 L327.712336,55.9870769 C326.392795,55.1544615 324.984438,54.5215897 323.487266,54.0884615 C321.990094,53.6574359 320.520413,53.4408718 319.084566,53.4408718 C316.536413,53.4408718 314.626884,53.9034359 313.353865,54.8264615 C312.080846,55.7494872 311.444336,56.9395385 311.444336,58.4008205 C311.444336,59.4710256 311.803827,60.3435897 312.522808,61.0143077 C313.241789,61.6829231 314.132056,62.204359 315.197839,62.5765128 C316.259394,62.9507692 317.703699,63.3439487 319.530757,63.762359 C321.899164,64.3279487 323.802349,64.895641 325.240311,65.4591282 C326.676158,66.0268205 327.913228,66.8888718 328.947292,68.0515897 C329.981355,69.2122051 330.49733,70.7744103 330.49733,72.7424103 C330.49733,74.3803077 330.04691,75.8773333 329.148183,77.2334872 C328.249457,78.5875385 326.887623,79.6598462 325.060566,80.4483077 C323.231394,81.2388718 320.985636,81.6341538 318.319062,81.6341538 C315.952769,81.6341538 313.668948,81.2704103 311.465483,80.5387179"/>
      <path stroke="#FFF" d="M311.465483,80.5387179 C309.264132,79.8091282 307.534349,78.8629744 306.276132,77.7002564 L307.938247,74.2163077 C309.135139,75.2886154 310.672489,76.1590769 312.546069,76.8297949 C314.417534,77.5005128 316.341865,77.8348205 318.319062,77.8348205 C320.926425,77.8348205 322.874018,77.3974872 324.161839,76.5186154 C325.447546,75.6397436 326.092515,74.4686154 326.092515,73.0094359 C326.092515,71.9371282 325.741483,71.0666667 325.037304,70.3959487 C324.333126,69.7252308 323.464005,69.2122051 322.432056,68.8547692 C321.395878,68.4973333 319.936769,68.0957436 318.048387,67.6478974 C315.682094,67.0844103 313.772566,66.5167179 312.319801,65.9511282 C310.867037,65.3855385 309.623623,64.5150769 308.591674,63.3355385 C307.555496,62.1602051 307.039521,60.5748718 307.039521,58.5795385 C307.039521,56.9122051 307.481483,55.4067692 308.365406,54.0653333 C309.24933,52.7238974 310.590018,51.6536923 312.389585,50.8484103 C314.184922,50.0452308 316.415878,49.643641 319.084566,49.643641 C320.939113,49.643641 322.768285,49.8812308 324.563623,50.3585128 C326.36319,50.8336923 327.904769,51.5191282 329.194706,52.4127179 L327.712336,55.9870769 C326.392795,55.1544615 324.984438,54.5215897 323.487266,54.0884615 C321.990094,53.6574359 320.520413,53.4408718 319.084566,53.4408718 C316.536413,53.4408718 314.626884,53.9034359 313.353865,54.8264615 C312.080846,55.7494872 311.444336,56.9395385 311.444336,58.4008205 C311.444336,59.4710256 311.803827,60.3435897 312.522808,61.0143077 C313.241789,61.6829231 314.132056,62.204359 315.197839,62.5765128 C316.259394,62.9507692 317.703699,63.3439487 319.530757,63.762359 C321.899164,64.3279487 323.802349,64.895641 325.240311,65.4591282 C326.676158,66.0268205 327.913228,66.8888718 328.947292,68.0515897 C329.981355,69.2122051 330.49733,70.7744103 330.49733,72.7424103 C330.49733,74.3803077 330.04691,75.8773333 329.148183,77.2334872 C328.249457,78.5875385 326.887623,79.6598462 325.060566,80.4483077 C323.231394,81.2388718 320.985636,81.6341538 318.319062,81.6341538 C315.952769,81.6341538 313.668948,81.2704103 311.465483,80.5387179 Z"/>
    </g>
    <g fill="#FFF" transform="translate(.566 .912)">
      <path d="M72.1335852,123.483815 C72.5732215,110.576699 77.818185,97.7748731 87.983497,87.4383942 L78.119796,83.0624041 C72.5732215,89.4081033 68.4426849,96.5781528 65.7332982,104.156525 C63.0187995,96.5653125 58.8780388,89.3824226 53.3135721,83.0264511 L43.4473151,87.3998731 C53.6407433,97.7491925 58.895931,110.566426 59.3330113,123.483815 L59.3457914,123.483815 C59.0211762,136.539879 53.7506524,149.511197 43.4498712,159.970944 L53.3161282,164.346934 C58.8754828,157.988394 63.0187995,150.808072 65.7358543,143.221996 C68.4426849,150.792664 72.5732215,157.960145 78.122352,164.308413 L87.983497,159.934991 C77.710832,149.482949 72.4505323,136.524471 72.1233611,123.483815 L72.1335852,123.483815 Z"/>
      <g>
        <path d="M109.198506 47.9850585C104.863487 52.3611761 104.863487 59.4646265 109.198506 63.8459046 113.533524 68.2246025 131.019292 70.0153015 131.019292 70.0153015 131.019292 70.0153015 129.247967 52.3611761 124.907836 47.9876388 120.572817 43.6089409 113.533524 43.6089409 109.198506 47.9850585M22.6555843 47.9850585C26.9906029 52.3611761 26.9906029 59.4646265 22.6555843 63.8459046 18.3205657 68.2246025.837353832 70.0153015.837353832 70.0153015.837353832 70.0153015 2.60612322 52.3611761 6.94625389 47.9876388 11.2838285 43.6089409 18.3205657 43.6089409 22.6555843 47.9850585M84.7565152 23.6968317C80.4240527 19.3207141 80.4189406 12.2146835 84.7565152 7.83856586 89.0915339 3.45728773 106.577302 1.67174917 106.577302 1.67174917 106.577302 1.67174917 104.808532 19.3207141 100.465846 23.6968317 96.1308271 28.0781098 89.0915339 28.0781098 84.7565152 23.6968317M47.0975746 23.6968317C51.4325932 19.3207141 51.4325932 12.2146835 47.0975746 7.83856586 42.757444 3.45728773 25.2742321 1.67174917 25.2742321 1.67174917 25.2742321 1.67174917 27.0481135 19.3207141 31.3831321 23.6968317 35.7232628 28.0781098 42.757444 28.0781098 47.0975746 23.6968317M84.7565152 61.1709511C89.0915339 56.7974137 96.1308271 56.7974137 100.468402 61.1709511 104.808532 65.549649 106.577302 83.1986139 106.577302 83.1986139 106.577302 83.1986139 89.0940899 81.4130753 84.7565152 77.0317972 80.4240527 72.6530993 80.4240527 65.549649 84.7565152 61.1709511M47.0975746 61.1709511C42.757444 56.7974137 35.7232628 56.7974137 31.3831321 61.1709511 27.0481135 65.549649 25.2742321 83.1986139 25.2742321 83.1986139 25.2742321 83.1986139 42.757444 81.4130753 47.0950186 77.0317972 51.4325932 72.6530993 51.4325932 65.549649 47.0975746 61.1709511M109.198506 35.9579598C104.863487 31.5792619 104.863487 24.4758116 109.198506 20.099694 113.533524 15.7184158 131.019292 13.930297 131.019292 13.930297 131.019292 13.930297 129.247967 31.5792619 124.907836 35.9553795 120.572817 40.3340774 113.533524 40.3340774 109.198506 35.9579598M73.2794512 42.519556C73.2794512 36.3269367 78.2509201 31.3005941 84.3879364 31.3005941 90.5223967 31.3005941 104.133231 42.519556 104.133231 42.519556 104.133231 42.519556 90.5223967 53.7385179 84.3879364 53.7385179 78.2509201 53.7385179 73.2794512 48.709595 73.2794512 42.519556M22.6555843 35.9579598C26.9906029 31.5792619 26.9906029 24.4758116 22.6555843 20.099694 18.3205657 15.7184158.837353832 13.930297.837353832 13.930297.837353832 13.930297 2.60612322 31.5792619 6.94625389 35.9553795 11.2838285 40.3340774 18.3205657 40.3340774 22.6555843 35.9579598M58.7070408 42.519556C58.7070408 36.3269367 53.7355719 31.3005941 47.5934435 31.3005941 41.4640952 31.3005941 27.8481494 42.519556 27.8481494 42.519556 27.8481494 42.519556 41.4640952 53.7385179 47.5934435 53.7385179 53.7355719 53.7385179 58.7070408 48.709595 58.7070408 42.519556M65.993246 32.2689649C72.1277063 32.2689649 77.1042872 27.250363 77.1042872 21.0551635 77.1042872 14.8625443 65.993246 1.12267027 65.993246 1.12267027 65.993246 1.12267027 54.8796487 14.8625443 54.8796487 21.0551635 54.8796487 27.250363 59.8587857 32.2689649 65.993246 32.2689649M65.993246 52.1880408C72.1277063 52.1880408 77.1042872 57.2092229 77.1042872 63.4044224 77.1042872 69.5944614 65.993246 83.3394959 65.993246 83.3394959 65.993246 83.3394959 54.8796487 69.5944614 54.8796487 63.4044224 54.8796487 57.2092229 59.8587857 52.1880408 65.993246 52.1880408"/>
      </g>
    </g>
  </g>
</svg>
