<svg xmlns="http://www.w3.org/2000/svg" width="462" height="168" viewBox="0 0 462 168">
  <g fill="none" fill-rule="evenodd">
    <g transform="translate(131 86)">
      <polygon fill="#FFF" points="30.593 .048 30.593 31.323 26.099 31.323 26.099 17.383 8.036 17.383 8.036 31.323 3.542 31.323 3.542 .048 8.036 .048 8.036 13.496 26.099 13.496 26.099 .048"/>
      <polygon stroke="#FFF" points="30.593 .048 30.593 31.323 26.099 31.323 26.099 17.383 8.036 17.383 8.036 31.323 3.542 31.323 3.542 .048 8.036 .048 8.036 13.496 26.099 13.496 26.099 .048"/>
      <polygon fill="#FFF" points="74.046 27.437 74.046 31.324 51.219 31.324 51.219 .049 73.418 .049 73.418 3.934 55.712 3.934 55.712 13.543 71.486 13.543 71.486 17.338 55.712 17.338 55.712 27.437"/>
      <polygon stroke="#FFF" points="74.046 27.437 74.046 31.324 51.219 31.324 51.219 .049 73.418 .049 73.418 3.934 55.712 3.934 55.712 13.543 71.486 13.543 71.486 17.338 55.712 17.338 55.712 27.437"/>
      <path fill="#FFF" d="M110.984639,19.9297846 L104.198729,4.60629744 L97.4149325,19.9297846 L110.984639,19.9297846 Z M112.557939,23.5041436 L95.8416331,23.5041436 L92.3820662,31.3235795 L87.7530981,31.3235795 L101.997378,0.0479384615 L106.446601,0.0479384615 L120.735289,31.3235795 L116.017506,31.3235795 L112.557939,23.5041436 Z"/>
      <path stroke="#FFF" d="M110.984639,19.9297846 L104.198729,4.60629744 L97.4149325,19.9297846 L110.984639,19.9297846 Z M112.557939,23.5041436 L95.8416331,23.5041436 L92.3820662,31.3235795 L87.7530981,31.3235795 L101.997378,0.0479384615 L106.446601,0.0479384615 L120.735289,31.3235795 L116.017506,31.3235795 L112.557939,23.5041436 Z"/>
      <polygon fill="#FFF" points="136.643 .048 141.137 .048 141.137 27.436 158.168 27.436 158.168 31.323 136.643 31.323"/>
      <polygon stroke="#FFF" points="136.643 .048 141.137 .048 141.137 27.436 158.168 27.436 158.168 31.323 136.643 31.323"/>
      <polygon fill="#FFF" points="180.814 3.935 170.029 3.935 170.029 .047 196.047 .047 196.047 3.935 185.263 3.935 185.263 31.323 180.814 31.323"/>
      <polygon stroke="#FFF" points="180.814 3.935 170.029 3.935 170.029 .047 196.047 .047 196.047 3.935 185.263 3.935 185.263 31.323 180.814 31.323"/>
      <polygon fill="#FFF" points="239.185 .048 239.185 31.323 234.692 31.323 234.692 17.383 216.628 17.383 216.628 31.323 212.135 31.323 212.135 .048 216.628 .048 216.628 13.496 234.692 13.496 234.692 .048"/>
      <polygon stroke="#FFF" points="239.185 .048 239.185 31.323 234.692 31.323 234.692 17.383 216.628 17.383 216.628 31.323 212.135 31.323 212.135 .048 216.628 .048 216.628 13.496 234.692 13.496 234.692 .048"/>
      <path fill="#FFF" d="M5.85715669,80.5387179 C3.65369172,79.8091282 1.92602293,78.8629744 0.66569172,77.7002564 L2.32992102,74.2163077 C3.52681274,75.2886154 5.06204841,76.1590769 6.93562803,76.8297949 C8.80709299,77.5005128 10.7314242,77.8348205 12.7086217,77.8348205 C15.3159847,77.8348205 17.2614624,77.3974872 18.5492841,76.5186154 C19.8371057,75.6397436 20.4820739,74.4686154 20.4820739,73.0094359 C20.4820739,71.9371282 20.131042,71.0666667 19.4268637,70.3959487 C18.7226854,69.7252308 17.855679,69.2122051 16.8216153,68.8547692 C15.7854369,68.4973333 14.3263287,68.0957436 12.4400611,67.6478974 C10.0716535,67.0844103 8.16212484,66.5167179 6.70936051,65.9511282 C5.25659618,65.3855385 4.01529682,64.5150769 2.98123312,63.3355385 C1.94505478,62.1602051 1.42908025,60.5748718 1.42908025,58.5795385 C1.42908025,56.9122051 1.87104204,55.4067692 2.75496561,54.0653333 C3.63888917,52.7238974 4.97957707,51.6536923 6.77914395,50.8484103 C8.57448153,50.0452308 10.8054369,49.643641 13.4741248,49.643641 C15.3286726,49.643641 17.1578446,49.8812308 18.9531822,50.3585128 C20.752749,50.8336923 22.2943287,51.5191282 23.584265,52.4127179 L22.1018955,55.9870769 C20.7823541,55.1544615 19.3761121,54.5215897 17.8768255,54.0884615 C16.3775389,53.6574359 14.909972,53.4408718 13.4741248,53.4408718 C10.9238573,53.4408718 9.01644331,53.9034359 7.74553885,54.8264615 C6.46829045,55.7494872 5.83178089,56.9395385 5.83178089,58.4008205 C5.83178089,59.4710256 6.19127134,60.3435897 6.91236688,61.0143077 C7.63134777,61.6829231 8.52161529,62.204359 9.58739873,62.5765128 C10.6489529,62.9507692 12.0932586,63.3439487 13.9224306,63.762359 C16.2887236,64.3279487 18.1897936,64.895641 19.6298701,65.4591282 C21.0657172,66.0268205 22.3027873,66.8888718 23.336851,68.0515897 C24.3688,69.2122051 24.8868892,70.7744103 24.8868892,72.7424103 C24.8868892,74.3803077 24.4364688,75.8773333 23.5377427,77.2334872 C22.6411312,78.5875385 21.2750675,79.6598462 19.4501248,80.4483077 C17.6209529,81.2388718 15.3751949,81.6341538 12.7086217,81.6341538 C10.3423287,81.6341538 8.05850701,81.2704103 5.85715669,80.5387179"/>
      <path stroke="#FFF" d="M5.85715669,80.5387179 C3.65369172,79.8091282 1.92602293,78.8629744 0.66569172,77.7002564 L2.32992102,74.2163077 C3.52681274,75.2886154 5.06204841,76.1590769 6.93562803,76.8297949 C8.80709299,77.5005128 10.7314242,77.8348205 12.7086217,77.8348205 C15.3159847,77.8348205 17.2614624,77.3974872 18.5492841,76.5186154 C19.8371057,75.6397436 20.4820739,74.4686154 20.4820739,73.0094359 C20.4820739,71.9371282 20.131042,71.0666667 19.4268637,70.3959487 C18.7226854,69.7252308 17.855679,69.2122051 16.8216153,68.8547692 C15.7854369,68.4973333 14.3263287,68.0957436 12.4400611,67.6478974 C10.0716535,67.0844103 8.16212484,66.5167179 6.70936051,65.9511282 C5.25659618,65.3855385 4.01529682,64.5150769 2.98123312,63.3355385 C1.94505478,62.1602051 1.42908025,60.5748718 1.42908025,58.5795385 C1.42908025,56.9122051 1.87104204,55.4067692 2.75496561,54.0653333 C3.63888917,52.7238974 4.97957707,51.6536923 6.77914395,50.8484103 C8.57448153,50.0452308 10.8054369,49.643641 13.4741248,49.643641 C15.3286726,49.643641 17.1578446,49.8812308 18.9531822,50.3585128 C20.752749,50.8336923 22.2943287,51.5191282 23.584265,52.4127179 L22.1018955,55.9870769 C20.7823541,55.1544615 19.3761121,54.5215897 17.8768255,54.0884615 C16.3775389,53.6574359 14.909972,53.4408718 13.4741248,53.4408718 C10.9238573,53.4408718 9.01644331,53.9034359 7.74553885,54.8264615 C6.46829045,55.7494872 5.83178089,56.9395385 5.83178089,58.4008205 C5.83178089,59.4710256 6.19127134,60.3435897 6.91236688,61.0143077 C7.63134777,61.6829231 8.52161529,62.204359 9.58739873,62.5765128 C10.6489529,62.9507692 12.0932586,63.3439487 13.9224306,63.762359 C16.2887236,64.3279487 18.1897936,64.895641 19.6298701,65.4591282 C21.0657172,66.0268205 22.3027873,66.8888718 23.336851,68.0515897 C24.3688,69.2122051 24.8868892,70.7744103 24.8868892,72.7424103 C24.8868892,74.3803077 24.4364688,75.8773333 23.5377427,77.2334872 C22.6411312,78.5875385 21.2750675,79.6598462 19.4501248,80.4483077 C17.6209529,81.2388718 15.3751949,81.6341538 12.7086217,81.6341538 C10.3423287,81.6341538 8.05850701,81.2704103 5.85715669,80.5387179 Z"/>
      <path fill="#FFF" d="M48.2286038,79.5551385 C45.6973682,78.1716513 43.7138268,76.2646256 42.2779796,73.8361641 C40.8379032,71.4098051 40.1189223,68.6764718 40.1189223,65.6382667 C40.1189223,62.6000615 40.8379032,59.8688308 42.2779796,57.4382667 C43.7138268,55.0119077 45.7058268,53.1048821 48.2539796,51.7213949 C50.7979032,50.3358051 53.6442217,49.641959 56.7908204,49.641959 C59.2480433,49.641959 61.4938013,50.0540615 63.5302089,50.8698564 C65.5666166,51.6898564 67.3048586,52.9030359 68.7428204,54.5136 L65.8224892,57.3289333 C63.4561962,54.8563179 60.5041452,53.6200103 56.9705656,53.6200103 C54.6338777,53.6200103 52.519228,54.1414462 50.6350752,55.1822154 C48.746693,56.2250872 47.2706675,57.663241 46.2091134,59.4945744 C45.1433299,61.3259077 44.6125529,63.3759077 44.6125529,65.6382667 C44.6125529,67.9027282 45.1433299,69.9506256 46.2091134,71.781959 C47.2706675,73.6132923 48.746693,75.0493436 50.6350752,76.0943179 C52.519228,77.1371897 54.6338777,77.6565231 56.9705656,77.6565231 C60.4745401,77.6565231 63.4265911,76.4054974 65.8224892,73.9034462 L68.7428204,76.7166769 C67.3048586,78.327241 65.558158,79.5488308 63.5090624,80.3835487 C61.4557376,81.2161641 59.201521,81.6324718 56.7442981,81.6324718 C53.599814,81.6324718 50.7598395,80.9407282 48.2286038,79.5551385"/>
      <path stroke="#FFF" d="M48.2286038,79.5551385 C45.6973682,78.1716513 43.7138268,76.2646256 42.2779796,73.8361641 C40.8379032,71.4098051 40.1189223,68.6764718 40.1189223,65.6382667 C40.1189223,62.6000615 40.8379032,59.8688308 42.2779796,57.4382667 C43.7138268,55.0119077 45.7058268,53.1048821 48.2539796,51.7213949 C50.7979032,50.3358051 53.6442217,49.641959 56.7908204,49.641959 C59.2480433,49.641959 61.4938013,50.0540615 63.5302089,50.8698564 C65.5666166,51.6898564 67.3048586,52.9030359 68.7428204,54.5136 L65.8224892,57.3289333 C63.4561962,54.8563179 60.5041452,53.6200103 56.9705656,53.6200103 C54.6338777,53.6200103 52.519228,54.1414462 50.6350752,55.1822154 C48.746693,56.2250872 47.2706675,57.663241 46.2091134,59.4945744 C45.1433299,61.3259077 44.6125529,63.3759077 44.6125529,65.6382667 C44.6125529,67.9027282 45.1433299,69.9506256 46.2091134,71.781959 C47.2706675,73.6132923 48.746693,75.0493436 50.6350752,76.0943179 C52.519228,77.1371897 54.6338777,77.6565231 56.9705656,77.6565231 C60.4745401,77.6565231 63.4265911,76.4054974 65.8224892,73.9034462 L68.7428204,76.7166769 C67.3048586,78.327241 65.558158,79.5488308 63.5090624,80.3835487 C61.4557376,81.2161641 59.201521,81.6324718 56.7442981,81.6324718 C53.599814,81.6324718 50.7598395,80.9407282 48.2286038,79.5551385 Z"/>
      <polygon fill="#FFF" points="113.409 50 113.409 81.276 108.915 81.276 108.915 67.336 90.852 67.336 90.852 81.276 86.358 81.276 86.358 50 90.852 50 90.852 63.448 108.915 63.448 108.915 50"/>
      <polygon stroke="#FFF" points="113.409 50 113.409 81.276 108.915 81.276 108.915 67.336 90.852 67.336 90.852 81.276 86.358 81.276 86.358 50 90.852 50 90.852 63.448 108.915 63.448 108.915 50"/>
      <path fill="#FFF" d="M154.458876,76.0932667 C156.300736,75.0503949 157.753501,73.612241 158.817169,71.7809077 C159.878724,69.9495744 160.411615,67.9016769 160.411615,65.6372154 C160.411615,63.3748564 159.878724,61.326959 158.817169,59.4935231 C157.753501,57.6621897 156.300736,56.2261385 154.458876,55.1832667 C152.617017,54.1424974 150.540431,53.6210615 148.235462,53.6210615 C145.92838,53.6210615 143.839106,54.1424974 141.965526,55.1832667 C140.094061,56.2261385 138.626494,57.6621897 137.562825,59.4935231 C136.499157,61.326959 135.966265,63.3748564 135.966265,65.6372154 C135.966265,67.9016769 136.499157,69.9495744 137.562825,71.7809077 C138.626494,73.612241 140.094061,75.0503949 141.965526,76.0932667 C143.839106,77.1361385 145.92838,77.6554718 148.235462,77.6554718 C150.540431,77.6554718 152.617017,77.1361385 154.458876,76.0932667 M139.652099,79.5540872 C137.106061,78.1706 135.105603,76.2572667 133.652838,73.8140872 C132.200074,71.3730103 131.472634,68.6459846 131.472634,65.6372154 C131.472634,62.6305487 132.200074,59.9056256 133.652838,57.4624462 C135.105603,55.0213692 137.106061,53.1038308 139.652099,51.7203436 C142.198138,50.3347538 145.059259,49.6430103 148.235462,49.6430103 C151.379946,49.6430103 154.226265,50.3347538 156.772303,51.7203436 C159.318341,53.1038308 161.310341,55.012959 162.748303,57.4393179 C164.18838,59.8677795 164.905246,62.5990103 164.905246,65.6372154 C164.905246,68.6775231 164.18838,71.4087538 162.748303,73.8372154 C161.310341,76.2635744 159.318341,78.1706 156.772303,79.5540872 C154.226265,80.9417795 151.379946,81.6335231 148.235462,81.6335231 C145.059259,81.6335231 142.198138,80.9417795 139.652099,79.5540872"/>
      <path stroke="#FFF" d="M154.458876,76.0932667 C156.300736,75.0503949 157.753501,73.612241 158.817169,71.7809077 C159.878724,69.9495744 160.411615,67.9016769 160.411615,65.6372154 C160.411615,63.3748564 159.878724,61.326959 158.817169,59.4935231 C157.753501,57.6621897 156.300736,56.2261385 154.458876,55.1832667 C152.617017,54.1424974 150.540431,53.6210615 148.235462,53.6210615 C145.92838,53.6210615 143.839106,54.1424974 141.965526,55.1832667 C140.094061,56.2261385 138.626494,57.6621897 137.562825,59.4935231 C136.499157,61.326959 135.966265,63.3748564 135.966265,65.6372154 C135.966265,67.9016769 136.499157,69.9495744 137.562825,71.7809077 C138.626494,73.612241 140.094061,75.0503949 141.965526,76.0932667 C143.839106,77.1361385 145.92838,77.6554718 148.235462,77.6554718 C150.540431,77.6554718 152.617017,77.1361385 154.458876,76.0932667 Z M139.652099,79.5540872 C137.106061,78.1706 135.105603,76.2572667 133.652838,73.8140872 C132.200074,71.3730103 131.472634,68.6459846 131.472634,65.6372154 C131.472634,62.6305487 132.200074,59.9056256 133.652838,57.4624462 C135.105603,55.0213692 137.106061,53.1038308 139.652099,51.7203436 C142.198138,50.3347538 145.059259,49.6430103 148.235462,49.6430103 C151.379946,49.6430103 154.226265,50.3347538 156.772303,51.7203436 C159.318341,53.1038308 161.310341,55.012959 162.748303,57.4393179 C164.18838,59.8677795 164.905246,62.5990103 164.905246,65.6372154 C164.905246,68.6775231 164.18838,71.4087538 162.748303,73.8372154 C161.310341,76.2635744 159.318341,78.1706 156.772303,79.5540872 C154.226265,80.9417795 151.379946,81.6335231 148.235462,81.6335231 C145.059259,81.6335231 142.198138,80.9417795 139.652099,79.5540872 Z"/>
      <polygon fill="#FFF" points="183.017 50 187.511 50 187.511 77.388 204.542 77.388 204.542 81.276 183.017 81.276"/>
      <polygon stroke="#FFF" points="183.017 50 187.511 50 187.511 77.388 204.542 77.388 204.542 81.276 183.017 81.276"/>
      <path fill="#FFF" d="M239.635485,69.8820821 L232.849575,54.5585949 L226.065778,69.8820821 L239.635485,69.8820821 Z M241.208785,73.456441 L224.492479,73.456441 L221.032912,81.2758769 L216.403944,81.2758769 L230.648224,50.0002359 L235.097447,50.0002359 L249.386135,81.2758769 L244.668352,81.2758769 L241.208785,73.456441 Z"/>
      <path stroke="#FFF" d="M239.635485,69.8820821 L232.849575,54.5585949 L226.065778,69.8820821 L239.635485,69.8820821 Z M241.208785,73.456441 L224.492479,73.456441 L221.032912,81.2758769 L216.403944,81.2758769 L230.648224,50.0002359 L235.097447,50.0002359 L249.386135,81.2758769 L244.668352,81.2758769 L241.208785,73.456441 Z"/>
      <path fill="#FFF" d="M283.896583,66.1285846 C285.393755,64.9090974 286.142341,63.1660718 286.142341,60.9016103 C286.142341,58.6371487 285.393755,56.9025333 283.896583,55.6956615 C282.399411,54.4908923 280.227666,53.8874564 277.381348,53.8874564 L269.743233,53.8874564 L269.743233,67.9620205 L277.381348,67.9620205 C280.227666,67.9620205 282.399411,67.3501744 283.896583,66.1285846 Z M286.277679,81.2754564 L279.493883,71.6709436 C278.654367,71.7298154 277.994596,71.7592513 277.514571,71.7592513 L269.743233,71.7592513 L269.743233,81.2754564 L265.249603,81.2754564 L265.249603,49.9998154 L277.514571,49.9998154 C281.589501,49.9998154 284.79531,50.9690974 287.131997,52.9034564 C289.468685,54.8420205 290.638087,57.5059692 290.638087,60.9016103 C290.638087,63.3132513 290.037526,65.369559 288.840634,67.0663282 C287.641628,68.7652 285.935106,70.0015077 283.716838,70.7752513 L291.175208,81.2754564 L286.277679,81.2754564 Z"/>
      <path stroke="#FFF" d="M283.896583,66.1285846 C285.393755,64.9090974 286.142341,63.1660718 286.142341,60.9016103 C286.142341,58.6371487 285.393755,56.9025333 283.896583,55.6956615 C282.399411,54.4908923 280.227666,53.8874564 277.381348,53.8874564 L269.743233,53.8874564 L269.743233,67.9620205 L277.381348,67.9620205 C280.227666,67.9620205 282.399411,67.3501744 283.896583,66.1285846 Z M286.277679,81.2754564 L279.493883,71.6709436 C278.654367,71.7298154 277.994596,71.7592513 277.514571,71.7592513 L269.743233,71.7592513 L269.743233,81.2754564 L265.249603,81.2754564 L265.249603,49.9998154 L277.514571,49.9998154 C281.589501,49.9998154 284.79531,50.9690974 287.131997,52.9034564 C289.468685,54.8420205 290.638087,57.5059692 290.638087,60.9016103 C290.638087,63.3132513 290.037526,65.369559 288.840634,67.0663282 C287.641628,68.7652 285.935106,70.0015077 283.716838,70.7752513 L291.175208,81.2754564 L286.277679,81.2754564 Z"/>
      <path fill="#FFF" d="M311.465483,80.5387179 C309.264132,79.8091282 307.534349,78.8629744 306.276132,77.7002564 L307.938247,74.2163077 C309.135139,75.2886154 310.672489,76.1590769 312.546069,76.8297949 C314.417534,77.5005128 316.341865,77.8348205 318.319062,77.8348205 C320.926425,77.8348205 322.874018,77.3974872 324.161839,76.5186154 C325.447546,75.6397436 326.092515,74.4686154 326.092515,73.0094359 C326.092515,71.9371282 325.741483,71.0666667 325.037304,70.3959487 C324.333126,69.7252308 323.464005,69.2122051 322.432056,68.8547692 C321.395878,68.4973333 319.936769,68.0957436 318.048387,67.6478974 C315.682094,67.0844103 313.772566,66.5167179 312.319801,65.9511282 C310.867037,65.3855385 309.623623,64.5150769 308.591674,63.3355385 C307.555496,62.1602051 307.039521,60.5748718 307.039521,58.5795385 C307.039521,56.9122051 307.481483,55.4067692 308.365406,54.0653333 C309.24933,52.7238974 310.590018,51.6536923 312.389585,50.8484103 C314.184922,50.0452308 316.415878,49.643641 319.084566,49.643641 C320.939113,49.643641 322.768285,49.8812308 324.563623,50.3585128 C326.36319,50.8336923 327.904769,51.5191282 329.194706,52.4127179 L327.712336,55.9870769 C326.392795,55.1544615 324.984438,54.5215897 323.487266,54.0884615 C321.990094,53.6574359 320.520413,53.4408718 319.084566,53.4408718 C316.536413,53.4408718 314.626884,53.9034359 313.353865,54.8264615 C312.080846,55.7494872 311.444336,56.9395385 311.444336,58.4008205 C311.444336,59.4710256 311.803827,60.3435897 312.522808,61.0143077 C313.241789,61.6829231 314.132056,62.204359 315.197839,62.5765128 C316.259394,62.9507692 317.703699,63.3439487 319.530757,63.762359 C321.899164,64.3279487 323.802349,64.895641 325.240311,65.4591282 C326.676158,66.0268205 327.913228,66.8888718 328.947292,68.0515897 C329.981355,69.2122051 330.49733,70.7744103 330.49733,72.7424103 C330.49733,74.3803077 330.04691,75.8773333 329.148183,77.2334872 C328.249457,78.5875385 326.887623,79.6598462 325.060566,80.4483077 C323.231394,81.2388718 320.985636,81.6341538 318.319062,81.6341538 C315.952769,81.6341538 313.668948,81.2704103 311.465483,80.5387179"/>
      <path stroke="#FFF" d="M311.465483,80.5387179 C309.264132,79.8091282 307.534349,78.8629744 306.276132,77.7002564 L307.938247,74.2163077 C309.135139,75.2886154 310.672489,76.1590769 312.546069,76.8297949 C314.417534,77.5005128 316.341865,77.8348205 318.319062,77.8348205 C320.926425,77.8348205 322.874018,77.3974872 324.161839,76.5186154 C325.447546,75.6397436 326.092515,74.4686154 326.092515,73.0094359 C326.092515,71.9371282 325.741483,71.0666667 325.037304,70.3959487 C324.333126,69.7252308 323.464005,69.2122051 322.432056,68.8547692 C321.395878,68.4973333 319.936769,68.0957436 318.048387,67.6478974 C315.682094,67.0844103 313.772566,66.5167179 312.319801,65.9511282 C310.867037,65.3855385 309.623623,64.5150769 308.591674,63.3355385 C307.555496,62.1602051 307.039521,60.5748718 307.039521,58.5795385 C307.039521,56.9122051 307.481483,55.4067692 308.365406,54.0653333 C309.24933,52.7238974 310.590018,51.6536923 312.389585,50.8484103 C314.184922,50.0452308 316.415878,49.643641 319.084566,49.643641 C320.939113,49.643641 322.768285,49.8812308 324.563623,50.3585128 C326.36319,50.8336923 327.904769,51.5191282 329.194706,52.4127179 L327.712336,55.9870769 C326.392795,55.1544615 324.984438,54.5215897 323.487266,54.0884615 C321.990094,53.6574359 320.520413,53.4408718 319.084566,53.4408718 C316.536413,53.4408718 314.626884,53.9034359 313.353865,54.8264615 C312.080846,55.7494872 311.444336,56.9395385 311.444336,58.4008205 C311.444336,59.4710256 311.803827,60.3435897 312.522808,61.0143077 C313.241789,61.6829231 314.132056,62.204359 315.197839,62.5765128 C316.259394,62.9507692 317.703699,63.3439487 319.530757,63.762359 C321.899164,64.3279487 323.802349,64.895641 325.240311,65.4591282 C326.676158,66.0268205 327.913228,66.8888718 328.947292,68.0515897 C329.981355,69.2122051 330.49733,70.7744103 330.49733,72.7424103 C330.49733,74.3803077 330.04691,75.8773333 329.148183,77.2334872 C328.249457,78.5875385 326.887623,79.6598462 325.060566,80.4483077 C323.231394,81.2388718 320.985636,81.6341538 318.319062,81.6341538 C315.952769,81.6341538 313.668948,81.2704103 311.465483,80.5387179 Z"/>
    </g>
    <g transform="translate(.572 .912)">
      <path fill="#FFF" d="M72.8407772,123.483815 C73.2847236,110.576699 78.5811084,97.7748731 88.8460803,87.4383942 L78.8856764,83.0624041 C73.2847236,89.4081033 69.1136916,96.5781528 66.3777423,104.156525 C63.6366309,96.5653125 59.4552745,89.3824226 53.8362542,83.0264511 L43.8732692,87.3998731 C54.166633,97.7491925 59.4733421,110.566426 59.9147075,123.483815 L59.9276129,123.483815 C59.5998152,136.539879 54.2776196,149.511197 43.8758503,159.970944 L53.8388353,164.346934 C59.4526934,157.988394 63.6366309,150.808072 66.3803234,143.221996 C69.1136916,150.792664 73.2847236,157.960145 78.8882574,164.308413 L88.8460803,159.934991 C78.4727029,149.482949 73.1608316,136.524471 72.8304528,123.483815 L72.8407772,123.483815 Z"/>
      <path fill="#78D64B" d="M110.529801,47.7583849 C106.141932,52.1138304 106.141932,59.1837252 110.529801,63.5443069 C114.91767,67.9023205 132.616616,69.6845606 132.616616,69.6845606 C132.616616,69.6845606 130.823696,52.1138304 126.430652,47.760953 C122.042783,43.4029394 114.91767,43.4029394 110.529801,47.7583849"/>
      <path fill="#70D44B" d="M110.529801 35.7881002C106.141932 31.4300866 106.141932 24.3601918 110.529801 20.0047463 114.91767 15.6441646 132.616616 13.8644926 132.616616 13.8644926 132.616616 13.8644926 130.823696 31.4300866 126.430652 35.7855322 122.042783 40.1435458 114.91767 40.1435458 110.529801 35.7881002M85.7898258 60.8819895C90.1776949 56.529112 97.3028077 56.529112 101.693264 60.8819895 106.086307 65.2400031 107.876641 82.8055972 107.876641 82.8055972 107.876641 82.8055972 90.1802821 81.0284932 85.7898258 76.6679115 81.4045439 72.3098979 81.4045439 65.2400031 85.7898258 60.8819895M74.1728389 42.3187005C74.1728389 36.1553342 79.2049176 31.1527351 85.4167534 31.1527351 91.6260021 31.1527351 105.402773 42.3187005 105.402773 42.3187005 105.402773 42.3187005 91.6260021 53.4846658 85.4167534 53.4846658 79.2049176 53.4846658 74.1728389 48.4794988 74.1728389 42.3187005M85.7898258 23.5848917C81.4045439 19.2294462 81.3993695 12.1569833 85.7898258 7.80153775 90.1776949 3.44095606 107.876641 1.6638521 107.876641 1.6638521 107.876641 1.6638521 106.086307 19.2294462 101.690677 23.5848917 97.3028077 27.9454734 90.1776949 27.9454734 85.7898258 23.5848917M66.7978038 51.941513C73.0070525 51.941513 78.0443055 56.9389759 78.0443055 63.1049103 78.0443055 69.2657085 66.7978038 82.9458137 66.7978038 82.9458137 66.7978038 82.9458137 55.5487149 69.2657085 55.5487149 63.1049103 55.5487149 56.9389759 60.5885551 51.941513 66.7978038 51.941513M66.7978038 32.1165316C73.0070525 32.1165316 78.0443055 27.1216368 78.0443055 20.9557024 78.0443055 14.792336 66.7978038 1.11736696 66.7978038 1.11736696 66.7978038 1.11736696 55.5487149 14.792336 55.5487149 20.9557024 55.5487149 27.1216368 60.5885551 32.1165316 66.7978038 32.1165316M47.6717655 60.8819895C43.2787221 56.529112 36.1587836 56.529112 31.7657401 60.8819895 27.3778711 65.2400031 25.5823633 82.8055972 25.5823633 82.8055972 25.5823633 82.8055972 43.2787221 81.0284932 47.6691783 76.6679115 52.0596346 72.3098979 52.0596346 65.2400031 47.6717655 60.8819895M59.4227687 42.3187005C59.4227687 36.1553342 54.3906901 31.1527351 48.1736798 31.1527351 41.9696055 31.1527351 28.1876606 42.3187005 28.1876606 42.3187005 28.1876606 42.3187005 41.9696055 53.4846658 48.1736798 53.4846658 54.3906901 53.4846658 59.4227687 48.4794988 59.4227687 42.3187005M47.6717655 23.5848917C52.0596346 19.2294462 52.0596346 12.1569833 47.6717655 7.80153775 43.2787221 3.44095606 25.5823633 1.6638521 25.5823633 1.6638521 25.5823633 1.6638521 27.3778711 19.2294462 31.7657401 23.5848917 36.1587836 27.9454734 43.2787221 27.9454734 47.6717655 23.5848917M22.9317903 47.7583849C27.3196594 52.1138304 27.3196594 59.1837252 22.9317903 63.5443069 18.5439212 67.9023205.847562446 69.6845606.847562446 69.6845606.847562446 69.6845606 2.63789582 52.1138304 7.03093927 47.760953 11.4213955 43.4029394 18.5439212 43.4029394 22.9317903 47.7583849M22.9317903 35.7881002C27.3196594 31.4300866 27.3196594 24.3601918 22.9317903 20.0047463 18.5439212 15.6441646.847562446 13.8644926.847562446 13.8644926.847562446 13.8644926 2.63789582 31.4300866 7.03093927 35.7855322 11.4213955 40.1435458 18.5439212 40.1435458 22.9317903 35.7881002"/>
    </g>
  </g>
</svg>
